<?xml version="1.0" standalone="no"?>
<!DOCTYPE svg PUBLIC "-//W3C//DTD SVG 20010904//EN"
 "http://www.w3.org/TR/2001/REC-SVG-20010904/DTD/svg10.dtd">
<svg version="1.0" xmlns="http://www.w3.org/2000/svg"
 width="1091.000000pt" height="1280.000000pt" viewBox="0 0 1091.000000 1280.000000"
 preserveAspectRatio="xMidYMid meet">
<metadata>
Created by potrace 1.15, written by Peter Selinger 2001-2017
</metadata>
<g transform="translate(0.000000,1280.000000) scale(0.100000,-0.100000)"
fill="#000000" stroke="none">
<path d="M4615 12790 c-727 -64 -1371 -339 -1829 -780 -205 -197 -348 -391
-461 -625 -144 -296 -204 -602 -183 -930 40 -634 429 -1235 1051 -1626 48 -30
87 -56 87 -59 0 -3 -55 -18 -123 -34 -642 -150 -1296 -406 -1740 -680 -177
-109 -392 -270 -487 -366 -174 -173 -472 -665 -631 -1040 -271 -642 -352
-1261 -259 -1978 10 -81 22 -177 25 -215 5 -53 12 -74 33 -99 53 -62 209 -170
482 -333 36 -21 70 -46 77 -54 6 -9 14 -13 18 -9 3 3 52 -14 108 -38 189 -83
365 -134 529 -154 l97 -12 6 -67 c3 -36 10 -88 15 -116 5 -27 12 -77 15 -110
50 -468 235 -1427 395 -2050 131 -512 236 -800 318 -879 28 -26 42 -30 194
-50 185 -25 162 -9 221 -151 18 -44 38 -80 44 -80 6 0 15 -4 20 -9 5 -5 2 -6
-6 -1 -9 5 -12 3 -9 -6 6 -19 47 -39 79 -39 14 0 70 -7 125 -15 228 -34 712
-85 1084 -115 954 -76 2113 -83 3215 -19 369 21 927 62 1205 89 58 6 139 13
181 17 l76 6 11 101 c6 55 21 195 32 311 24 233 27 248 98 525 178 686 236
1331 158 1742 -8 43 -10 89 -5 125 4 32 10 92 14 133 l6 76 82 13 c444 69 894
193 1257 346 192 81 530 258 530 278 0 5 -8 3 -17 -5 -10 -9 -34 -23 -53 -32
-19 -9 -27 -11 -16 -4 65 45 85 56 90 51 7 -8 52 85 70 148 37 130 48 217 53
434 3 133 1 272 -6 351 -48 545 -213 1140 -487 1762 -118 266 -358 727 -374
717 -5 -3 -12 0 -16 6 -5 8 -3 9 6 4 8 -5 11 -3 8 6 -3 8 -10 14 -15 14 -6 0
-15 4 -20 9 -5 5 -3 6 5 2 19 -11 14 4 -14 41 -14 18 -29 31 -34 28 -4 -2 -14
3 -21 13 -13 15 -12 16 4 3 9 -7 17 -9 17 -4 0 5 -37 48 -81 94 -46 47 -106
124 -136 174 -233 379 -589 657 -1158 900 -256 109 -692 239 -1060 315 -82 18
-170 36 -195 41 -84 18 -494 78 -538 79 -1 0 37 33 85 73 352 295 609 683 712
1080 49 186 56 247 56 472 -1 179 -4 226 -23 320 -39 185 -85 328 -148 459
-38 77 -40 101 -3 32 13 -25 26 -43 30 -40 4 2 13 -4 20 -14 13 -16 13 -16 -5
-2 -24 18 -23 16 28 -116 125 -322 151 -715 72 -1059 -94 -404 -348 -810 -693
-1106 -114 -98 -114 -92 2 -104 33 -4 145 -20 250 -36 104 -16 195 -27 203
-24 7 2 10 0 7 -5 -3 -6 -2 -10 4 -10 11 0 144 145 150 163 2 7 -24 -17 -58
-53 l-63 -65 58 67 c32 37 61 65 65 62 8 -4 69 68 69 82 0 5 -14 -7 -31 -26
l-30 -35 26 37 c15 21 31 36 35 33 5 -3 29 26 54 63 52 78 67 110 46 97 -9 -5
-11 -4 -6 4 4 6 11 9 16 6 11 -7 76 120 126 244 70 174 109 353 120 551 3 65
17 165 31 228 14 63 21 117 17 122 -5 4 -26 13 -47 20 -28 9 -38 18 -43 38
-14 72 -56 217 -84 293 -37 101 -152 324 -167 324 -6 0 -15 4 -20 9 -5 5 -3 6
5 2 19 -11 14 6 -14 47 -14 21 -29 35 -34 32 -5 -3 -12 0 -16 6 -5 8 -3 9 6 4
8 -5 11 -3 8 6 -3 8 -10 13 -16 12 -5 -1 -22 14 -37 35 l-26 37 30 -35 c17
-19 31 -31 31 -26 0 10 -59 84 -129 164 -28 31 -74 96 -104 144 -414 660
-1176 1100 -2092 1208 -122 15 -517 21 -640 10z m3065 -1690 c6 -11 8 -20 6
-20 -3 0 -10 9 -16 20 -6 11 -8 20 -6 20 3 0 10 -9 16 -20z m81 -154 c57 -122
47 -119 -13 4 -63 127 -64 131 -43 102 9 -12 34 -60 56 -106z m83 -210 c15
-43 25 -80 23 -83 -4 -3 -57 149 -57 163 0 17 10 -6 34 -80z m45 -156 c0 -9
-4 -8 -9 5 -5 11 -9 27 -9 35 0 9 4 8 9 -5 5 -11 9 -27 9 -35z m15 -65 c5 -22
4 -26 -4 -15 -5 8 -10 24 -10 34 0 26 6 18 14 -19z m47 -53 c-7 -2 -18 1 -23
6 -8 8 -4 9 13 5 13 -4 18 -8 10 -11z m49 -17 c0 -8 -2 -15 -4 -15 -2 0 -6 7
-10 15 -3 8 -1 15 4 15 6 0 10 -7 10 -15z m-16 -64 c-4 -17 -9 -30 -11 -27 -3
2 -2 19 2 36 9 41 17 33 9 -9z m-20 -90 c-4 -17 -9 -30 -11 -27 -3 2 -2 19 2
36 9 41 17 33 9 -9z m-17 -63 c-3 -8 -6 -5 -6 6 -1 11 2 17 5 13 3 -3 4 -12 1
-19z m1 -64 c-3 -27 -4 -26 -9 8 -3 22 -1 34 4 29 5 -5 7 -21 5 -37z m-11
-136 c-2 -18 -4 -4 -4 32 0 36 2 50 4 33 2 -18 2 -48 0 -65z m-12 -113 c-4
-25 -9 -44 -12 -41 -2 2 -1 25 2 51 4 25 9 44 12 41 2 -2 1 -25 -2 -51z m-20
-105 c-4 -17 -9 -30 -11 -27 -2 2 -1 18 2 36 4 17 9 30 11 27 3 -2 2 -19 -2
-36z m-21 -79 c-4 -17 -9 -30 -11 -27 -3 2 -2 19 2 36 4 17 9 30 11 27 2 -2 1
-18 -2 -36z m-23 -72 c-5 -13 -10 -19 -10 -12 -1 15 10 45 15 40 3 -2 0 -15
-5 -28z m-20 -56 c-12 -20 -14 -14 -5 12 4 9 9 14 11 11 3 -2 0 -13 -6 -23z
m-35 -90 c-8 -15 -15 -25 -16 -21 0 12 23 58 27 54 3 -2 -2 -17 -11 -33z m-30
-68 c-9 -20 -23 -45 -32 -58 -18 -25 -17 -21 14 46 27 55 39 64 18 12z m-53
-100 c-3 -9 -8 -14 -10 -11 -3 3 -2 9 2 15 9 16 15 13 8 -4z m-42 -72 c-5 -10
-17 -27 -26 -38 -16 -19 -17 -19 -3 5 26 46 29 50 34 50 3 0 0 -8 -5 -17z
m-57 -88 c-9 -14 -18 -25 -21 -25 -5 0 5 18 20 38 17 22 18 13 1 -13z m2226
-1743 c0 -7 4 -11 9 -8 4 3 19 -7 32 -22 l24 -27 -29 25 c-16 14 -27 21 -25
15 2 -5 48 -98 101 -205 362 -732 576 -1451 627 -2109 33 -413 -17 -776 -129
-951 -38 -59 -71 -80 -315 -205 -352 -179 -680 -298 -1075 -390 -85 -20 -161
-38 -167 -40 -7 -2 -13 -1 -13 3 0 4 66 23 148 41 277 62 551 150 797 253 175
74 541 261 577 295 58 55 119 210 147 373 31 184 38 365 21 594 -52 700 -276
1437 -678 2231 -55 110 -90 187 -76 170 13 -16 24 -36 24 -43z m210 -262 c6
-11 8 -20 6 -20 -3 0 -10 9 -16 20 -6 11 -8 20 -6 20 3 0 10 -9 16 -20z m24
-46 c3 -8 2 -12 -4 -9 -6 3 -10 10 -10 16 0 14 7 11 14 -7z m31 -54 c9 -16 13
-30 11 -30 -3 0 -12 14 -21 30 -9 17 -13 30 -11 30 3 0 12 -13 21 -30z m131
-251 c41 -83 74 -153 72 -155 -2 -2 -38 66 -81 151 -42 85 -75 155 -72 155 3
0 39 -68 81 -151z m98 -205 c3 -8 2 -12 -4 -9 -6 3 -10 10 -10 16 0 14 7 11
14 -7z m31 -67 c8 -20 13 -37 10 -37 -5 0 -35 67 -35 78 0 11 10 -5 25 -41z
m35 -82 c0 -5 -5 -3 -10 5 -5 8 -10 20 -10 25 0 6 5 3 10 -5 5 -8 10 -19 10
-25z m14 -31 c3 -8 2 -12 -4 -9 -6 3 -10 10 -10 16 0 14 7 11 14 -7z m26 -59
c0 -5 -5 -3 -10 5 -5 8 -10 20 -10 25 0 6 5 3 10 -5 5 -8 10 -19 10 -25z m20
-50 c0 -5 -5 -3 -10 5 -5 8 -10 20 -10 25 0 6 5 3 10 -5 5 -8 10 -19 10 -25z
m20 -50 c0 -5 -5 -3 -10 5 -5 8 -10 20 -10 25 0 6 5 3 10 -5 5 -8 10 -19 10
-25z m20 -50 c0 -5 -5 -3 -10 5 -5 8 -10 20 -10 25 0 6 5 3 10 -5 5 -8 10 -19
10 -25z m20 -50 c0 -5 -5 -3 -10 5 -5 8 -10 20 -10 25 0 6 5 3 10 -5 5 -8 10
-19 10 -25z m40 -110 c0 -5 -5 -3 -10 5 -5 8 -10 20 -10 25 0 6 5 3 10 -5 5
-8 10 -19 10 -25z m34 -95 c5 -20 3 -19 -8 5 -7 17 -16 41 -20 55 -5 20 -3 19
8 -5 7 -16 16 -41 20 -55z m45 -135 c0 -5 -4 -3 -9 5 -5 8 -9 22 -9 30 0 16
17 -16 18 -35z m20 -60 c0 -5 -4 -3 -9 5 -5 8 -9 22 -9 30 0 16 17 -16 18 -35z
m20 -70 c0 -5 -4 -3 -9 5 -5 8 -9 22 -9 30 0 16 17 -16 18 -35z m20 -65 c0
-10 -3 -8 -9 5 -12 27 -12 43 0 25 5 -8 9 -22 9 -30z m15 -55 c5 -22 4 -26 -4
-15 -5 8 -10 24 -10 34 0 26 6 18 14 -19z m25 -95 c0 -9 -4 -8 -9 5 -5 11 -9
27 -9 35 0 9 4 8 9 -5 5 -11 9 -27 9 -35z m20 -80 c0 -9 -4 -8 -9 5 -5 11 -9
27 -9 35 0 9 4 8 9 -5 5 -11 9 -27 9 -35z m19 -85 c0 -16 -2 -15 -8 5 -11 34
-11 60 0 35 5 -11 8 -29 8 -40z m20 -100 c0 -16 -2 -15 -8 5 -4 14 -8 34 -8
45 0 16 2 15 8 -5 4 -14 8 -34 8 -45z m20 -100 c0 -16 -2 -15 -8 5 -4 14 -8
34 -8 45 0 16 2 15 8 -5 4 -14 8 -34 8 -45z m20 -125 c0 -22 -1 -22 -8 5 -4
17 -8 41 -8 55 0 22 1 22 8 -5 4 -16 8 -41 8 -55z m20 -155 c0 -22 -3 -19 -9
15 -10 60 -9 108 2 55 4 -22 8 -53 7 -70z m21 -254 c2 -117 -6 -79 -11 59 -4
79 -3 105 2 70 5 -30 8 -88 9 -129z m-2 -278 c-2 -21 -4 -4 -4 37 0 41 2 58 4
38 2 -21 2 -55 0 -75z m-10 -105 c-2 -13 -4 -3 -4 22 0 25 2 35 4 23 2 -13 2
-33 0 -45z m-13 -107 c-4 -23 -9 -40 -11 -37 -3 3 -2 23 2 46 4 23 9 39 11 37
3 -2 2 -23 -2 -46z m-20 -95 c-3 -15 -8 -25 -11 -23 -2 3 -1 17 3 31 3 15 8
25 11 23 2 -3 1 -17 -3 -31z m-23 -77 c-5 -13 -10 -19 -10 -12 -1 15 10 45 15
40 3 -2 0 -15 -5 -28z m-26 -68 c-21 -43 -29 -39 -8 4 9 19 18 33 21 31 2 -2
-4 -18 -13 -35z m-135 -115 c0 -2 -7 -7 -16 -10 -8 -3 -12 -2 -9 4 6 10 25 14
25 6z m-60 -31 c0 -2 -18 -14 -40 -25 -22 -11 -40 -18 -40 -15 0 2 17 13 38
24 42 23 42 23 42 16z m-90 -49 c0 -2 -7 -7 -16 -10 -8 -3 -12 -2 -9 4 6 10
25 14 25 6z m-40 -20 c0 -2 -7 -7 -16 -10 -8 -3 -12 -2 -9 4 6 10 25 14 25 6z
m-40 -20 c0 -2 -7 -7 -16 -10 -8 -3 -12 -2 -9 4 6 10 25 14 25 6z m-50 -26
c-8 -5 -19 -10 -25 -10 -5 0 -3 5 5 10 8 5 20 10 25 10 6 0 3 -5 -5 -10z
m-100 -45 c-14 -8 -29 -14 -35 -14 -5 0 1 6 15 14 14 8 30 14 35 14 6 0 -1 -6
-15 -14z m-1381 -201 c6 -77 11 -145 11 -151 0 -6 8 -14 18 -17 10 -3 6 -4 -8
-3 -24 2 -25 6 -31 77 -22 259 -21 252 -41 247 -10 -3 -74 -15 -141 -27 l-124
-23 -23 -226 c-12 -124 -26 -334 -30 -466 -5 -132 -13 -287 -19 -345 -15 -133
-51 -394 -57 -399 -7 -7 -4 23 12 130 31 207 44 358 50 574 3 121 17 328 30
461 13 133 24 250 24 260 0 17 18 23 153 49 135 27 153 28 159 14 3 -8 11 -78
17 -155z m1301 166 c-8 -5 -19 -10 -25 -10 -5 0 -3 5 5 10 8 5 20 10 25 10 6
0 3 -5 -5 -10z m-50 -20 c-8 -5 -19 -10 -25 -10 -5 0 -3 5 5 10 8 5 20 10 25
10 6 0 3 -5 -5 -10z m-1243 -52 c-2 -13 -4 -5 -4 17 -1 22 1 32 4 23 2 -10 2
-28 0 -40z m1193 32 c-8 -5 -19 -10 -25 -10 -5 0 -3 5 5 10 8 5 20 10 25 10 6
0 3 -5 -5 -10z m-1243 -52 c-2 -13 -4 -5 -4 17 -1 22 1 32 4 23 2 -10 2 -28 0
-40z m1133 12 c-8 -5 -19 -10 -25 -10 -5 0 -3 5 5 10 8 5 20 10 25 10 6 0 3
-5 -5 -10z m-60 -20 c-8 -5 -19 -10 -25 -10 -5 0 -3 5 5 10 8 5 20 10 25 10 6
0 3 -5 -5 -10z m-60 -20 c-8 -5 -19 -10 -25 -10 -5 0 -3 5 5 10 8 5 20 10 25
10 6 0 3 -5 -5 -10z m-1003 -47 c-3 -10 -5 -2 -5 17 0 19 2 27 5 18 2 -10 2
-26 0 -35z m948 27 c-11 -5 -27 -9 -35 -9 -9 0 -8 4 5 9 11 5 27 9 35 9 9 0 8
-4 -5 -9z m-70 -20 c-11 -5 -27 -9 -35 -9 -9 0 -8 4 5 9 11 5 27 9 35 9 9 0 8
-4 -5 -9z m-70 -20 c-11 -5 -27 -9 -35 -9 -9 0 -8 4 5 9 11 5 27 9 35 9 9 0 8
-4 -5 -9z m-758 -47 c-3 -10 -5 -2 -5 17 0 19 2 27 5 18 2 -10 2 -26 0 -35z
m683 27 c-34 -11 -60 -11 -35 0 11 5 29 8 40 8 16 0 15 -2 -5 -8z m-85 -20
c-11 -5 -27 -9 -35 -9 -9 0 -8 4 5 9 11 5 27 9 35 9 9 0 8 -4 -5 -9z m-68 -16
c-3 -3 -12 -4 -19 -1 -8 3 -5 6 6 6 11 1 17 -2 13 -5z m-40 -10 c-3 -3 -12 -4
-19 -1 -8 3 -5 6 6 6 11 1 17 -2 13 -5z m-67 -14 c-34 -11 -60 -11 -35 0 11 5
29 8 40 8 16 0 15 -2 -5 -8z m-100 -20 c-34 -11 -60 -11 -35 0 11 5 29 8 40 8
16 0 15 -2 -5 -8z m-100 -20 c-14 -4 -34 -8 -45 -8 -16 0 -15 2 5 8 14 4 34 8
45 8 16 0 15 -2 -5 -8z m-110 -20 c-14 -4 -34 -8 -45 -8 -16 0 -15 2 5 8 14 4
34 8 45 8 16 0 15 -2 -5 -8z m-149 -110 c-6 -44 -9 -53 -10 -29 -1 37 9 102
15 96 2 -1 -1 -32 -5 -67z m-14 -171 c-1 -53 -4 -72 -8 -55 -7 24 -1 136 7
136 2 0 2 -36 1 -81z m21 -199 c0 -16 -3 -11 -9 15 -4 22 -8 51 -7 65 0 16 3
11 9 -15 4 -22 8 -51 7 -65z m9 -142 c-2 -18 -4 -4 -4 32 0 36 2 50 4 33 2
-18 2 -48 0 -65z m10 -255 c-1 -43 -3 -10 -3 72 0 83 2 118 3 78 2 -40 2 -107
0 -150z m-10 -190 c-2 -21 -4 -4 -4 37 0 41 2 58 4 38 2 -21 2 -55 0 -75z
m-10 -125 c-2 -13 -4 -5 -4 17 -1 22 1 32 4 23 2 -10 2 -28 0 -40z m-440 -35
c-3 -10 -5 -4 -5 12 0 17 2 24 5 18 2 -7 2 -21 0 -30z m430 -45 c-2 -13 -4 -5
-4 17 -1 22 1 32 4 23 2 -10 2 -28 0 -40z m-446 -32 c-6 -25 -16 -88 -21 -141
-9 -89 -14 -136 -40 -377 -5 -51 -19 -178 -30 -283 -22 -204 -34 -321 -51
-479 -12 -115 -28 -152 -72 -171 -43 -17 -584 -66 -1157 -105 -1572 -106
-2909 -87 -4232 60 -147 17 -269 30 -272 30 -3 0 -3 -8 1 -17 8 -23 -1 -15
-16 15 -11 21 -10 22 11 17 13 -3 61 -9 108 -14 47 -6 148 -17 225 -25 764
-85 1400 -117 2300 -117 907 0 1651 35 2615 121 63 5 167 14 230 20 164 14
185 19 210 45 24 25 28 58 80 540 38 365 52 496 71 663 19 182 36 278 47 268
2 -3 -1 -25 -7 -50z m436 -53 c-3 -10 -5 -4 -5 12 0 17 2 24 5 18 2 -7 2 -21
0 -30z m-10 -70 c-3 -10 -5 -2 -5 17 0 19 2 27 5 18 2 -10 2 -26 0 -35z m-12
-88 c-4 -25 -9 -44 -12 -41 -2 2 -1 25 2 51 4 25 9 44 12 41 2 -2 1 -25 -2
-51z m-20 -115 c-4 -23 -9 -39 -11 -37 -3 2 -2 23 2 46 4 23 9 40 11 37 3 -3
2 -23 -2 -46z m-24 -106 c-5 -21 -9 -30 -10 -19 -1 24 10 67 15 62 3 -2 0 -22
-5 -43z m-20 -100 c-5 -21 -9 -30 -10 -19 -1 24 10 67 15 62 3 -2 0 -22 -5
-43z m-16 -84 c-9 -41 -17 -33 -9 9 4 17 9 30 11 27 3 -2 2 -19 -2 -36z m-21
-89 c-4 -17 -9 -30 -11 -27 -3 2 -2 19 2 36 9 41 17 33 9 -9z m-20 -80 c-4
-17 -9 -30 -11 -27 -3 2 -2 19 2 36 9 41 17 33 9 -9z m-20 -75 c-3 -15 -8 -25
-11 -23 -2 3 -1 17 3 31 3 15 8 25 11 23 2 -3 1 -17 -3 -31z m-20 -70 c-3 -15
-8 -25 -11 -23 -2 3 -1 17 3 31 3 15 8 25 11 23 2 -3 1 -17 -3 -31z m-23 -82
c-5 -16 -10 -21 -10 -12 -1 18 10 51 15 45 2 -1 -1 -16 -5 -33z m-14 -56 c-3
-8 -6 -5 -6 6 -1 11 2 17 5 13 3 -3 4 -12 1 -19z m-10 -80 c-2 -13 -4 -3 -4
22 0 25 2 35 4 23 2 -13 2 -33 0 -45z m-13 -137 c-3 -40 -9 -70 -11 -67 -3 3
-2 37 2 76 4 39 9 69 12 67 2 -3 1 -37 -3 -76z m-17 -158 c-3 -10 -5 -2 -5 17
0 19 2 27 5 18 2 -10 2 -26 0 -35z m-10 -85 c-2 -13 -4 -3 -4 22 0 25 2 35 4
23 2 -13 2 -33 0 -45z m-5978 -103 c0 -5 -11 10 -24 35 -13 25 -24 50 -24 55
0 6 11 -10 24 -35 13 -25 24 -49 24 -55z m5965 -34 c-3 -40 -9 -70 -11 -67 -3
3 -2 37 2 76 4 39 9 69 12 67 2 -3 1 -37 -3 -76z m-5917 -17 c-3 -3 -12 -4
-19 -1 -8 3 -5 6 6 6 11 1 17 -2 13 -5z m86 -11 c-7 -2 -21 -2 -30 0 -10 3 -4
5 12 5 17 0 24 -2 18 -5z m60 -10 c-7 -2 -21 -2 -30 0 -10 3 -4 5 12 5 17 0
24 -2 18 -5z m85 -10 c-10 -2 -26 -2 -35 0 -10 3 -2 5 17 5 19 0 27 -2 18 -5z
m65 -10 c-7 -2 -21 -2 -30 0 -10 3 -4 5 12 5 17 0 24 -2 18 -5z m95 -10 c-10
-2 -28 -2 -40 0 -13 2 -5 4 17 4 22 1 32 -1 23 -4z m5475 0 c-13 -2 -33 -2
-45 0 -13 2 -3 4 22 4 25 0 35 -2 23 -4z m-5405 -10 c-10 -2 -26 -2 -35 0 -10
3 -2 5 17 5 19 0 27 -2 18 -5z m5320 0 c-10 -2 -28 -2 -40 0 -13 2 -5 4 17 4
22 1 32 -1 23 -4z m-5173 -12 c53 -11 5 -12 -55 -2 -34 6 -37 9 -15 9 17 1 48
-3 70 -7z m5015 -1 c-30 -5 -71 -8 -90 -8 -31 1 -30 2 10 8 25 4 65 7 90 7 44
0 44 0 -10 -7z m-4825 -20 c40 -6 43 -7 15 -8 -19 0 -57 3 -85 8 -40 6 -43 7
-15 8 19 0 58 -3 85 -8z m4628 3 c-13 -2 -35 -2 -50 0 -16 2 -5 4 22 4 28 0
40 -2 28 -4z m-100 -10 c-13 -2 -33 -2 -45 0 -13 2 -3 4 22 4 25 0 35 -2 23
-4z m-4318 -13 c40 -6 43 -7 15 -8 -19 0 -60 3 -90 8 -48 6 -50 7 -15 8 22 0
63 -3 90 -8z m4173 3 c-16 -2 -40 -2 -55 0 -16 2 -3 4 27 4 30 0 43 -2 28 -4z
m-110 -10 c-16 -2 -40 -2 -55 0 -16 2 -3 4 27 4 30 0 43 -2 28 -4z m-3890 -10
c-16 -2 -40 -2 -55 0 -16 2 -3 4 27 4 30 0 43 -2 28 -4z m3692 -3 c-36 -4 -87
-7 -115 -7 l-50 0 60 7 c33 4 85 7 115 7 l55 0 -65 -7z m-3587 -7 c-13 -2 -35
-2 -50 0 -16 2 -5 4 22 4 28 0 40 -2 28 -4z m242 -13 c68 -7 69 -7 15 -7 -30
0 -84 3 -120 7 -61 7 -62 7 -15 7 28 0 82 -3 120 -7z m3072 3 c-20 -2 -52 -2
-70 0 -17 2 0 4 38 4 39 0 53 -2 32 -4z m-134 -10 c-18 -2 -48 -2 -65 0 -18 2
-4 4 32 4 36 0 50 -2 33 -4z m-2696 -10 c-20 -2 -52 -2 -70 0 -17 2 0 4 38 4
39 0 53 -2 32 -4z m2476 0 c-24 -2 -62 -2 -85 0 -24 2 -5 4 42 4 47 0 66 -2
43 -4z m-2300 -10 c-23 -2 -64 -2 -90 0 -26 2 -7 3 42 3 50 0 71 -1 48 -3z
m2130 0 c-23 -2 -64 -2 -90 0 -26 2 -7 3 42 3 50 0 71 -1 48 -3z m-1795 -10
c-38 -2 -98 -2 -135 0 -38 2 -7 3 67 3 74 0 105 -1 68 -3z m1470 0 c-38 -2
-98 -2 -135 0 -38 2 -7 3 67 3 74 0 105 -1 68 -3z m-1105 -10 c-51 -2 -135 -2
-185 0 -51 1 -10 3 92 3 102 0 143 -2 93 -3z m790 0 c-51 -2 -136 -2 -190 0
-54 1 -12 3 92 3 105 0 149 -2 98 -3z"/>
<path d="M685 3950 c7 -12 196 -137 221 -147 13 -5 15 -3 9 8 -5 8 -5 11 1 6
5 -5 9 -13 9 -19 0 -16 239 -139 374 -193 63 -25 115 -44 116 -43 1 2 -3 45
-8 96 -10 85 -12 92 -33 92 -12 0 -73 9 -136 19 -123 22 -232 53 -373 109 -49
19 -96 35 -102 35 -7 0 -13 3 -13 7 0 3 -16 14 -36 23 -19 10 -33 13 -29 7z
m135 -76 c0 -2 -9 0 -20 6 -11 6 -20 13 -20 16 0 2 9 0 20 -6 11 -6 20 -13 20
-16z m65 -39 l20 -16 -20 10 c-11 5 -29 17 -40 26 l-20 16 20 -10 c11 -5 29
-17 40 -26z m115 -71 c0 -2 -9 0 -20 6 -11 6 -20 13 -20 16 0 2 9 0 20 -6 11
-6 20 -13 20 -16z m35 -14 c3 -6 -1 -7 -9 -4 -18 7 -21 14 -7 14 6 0 13 -4 16
-10z m80 -48 c-3 -3 -11 0 -18 7 -9 10 -8 11 6 5 10 -3 15 -9 12 -12z m80 -32
c3 -6 -1 -7 -9 -4 -18 7 -21 14 -7 14 6 0 13 -4 16 -10z m45 -20 c8 -5 11 -10
5 -10 -5 0 -17 5 -25 10 -8 5 -10 10 -5 10 6 0 17 -5 25 -10z m50 -20 c8 -5
11 -10 5 -10 -5 0 -17 5 -25 10 -8 5 -10 10 -5 10 6 0 17 -5 25 -10z m50 -20
c8 -5 11 -10 5 -10 -5 0 -17 5 -25 10 -8 5 -10 10 -5 10 6 0 17 -5 25 -10z
m50 -20 c8 -5 11 -10 5 -10 -5 0 -17 5 -25 10 -8 5 -10 10 -5 10 6 0 17 -5 25
-10z"/>
</g>
</svg>
